<svg width="880" height="880" version="1.1" xmlns="http://www.w3.org/2000/svg" desc="Created with imagetracer.js version 1.2.6" ><path fill="rgb(0,0,0)" stroke="rgb(0,0,0)" stroke-width="1" opacity="0" d="M 0 0 L 228 0.5 L 212.5 2 L 191.5 6 L 147.5 21 Q 102.3 41.8 70 75.5 Q 41.5 104.5 23 143.5 L 8 184.5 L 3 206.5 L 0.5 229 L 0 0 Z " /><path fill="rgb(0,0,0)" stroke="rgb(0,0,0)" stroke-width="1" opacity="0" d="M 651.5 0 L 880 0 L 880 228.5 L 879 228.5 L 879 219.5 L 878 218.5 L 877 206.5 L 871 180.5 L 858 145.5 Q 837.4 101.6 804.5 70 Q 774.7 40.8 734.5 22 L 699.5 9 L 673.5 3 L 651.5 1 L 651.5 0 Z " /><path fill="rgb(0,0,0)" stroke="rgb(0,0,0)" stroke-width="1" opacity="0" d="M 879.5 651 L 880 880 L 651 879.5 L 673.5 877 L 699.5 871 L 736.5 857 Q 777.8 837.3 808 806.5 Q 838.5 776 858 734.5 L 871 699.5 L 877 673.5 L 879.5 651 Z " /><path fill="rgb(0,0,0)" stroke="rgb(0,0,0)" stroke-width="1" opacity="0" d="M 0.5 652 L 2 667.5 L 7 692.5 L 13 712.5 L 21 732.5 Q 43.3 781.3 80.5 815 Q 109.2 841.8 147.5 859 L 167.5 867 L 187.5 873 L 212.5 878 L 228 879.5 L 0 880 L 0.5 652 Z " /><path fill="rgb(191,228,241)" stroke="rgb(191,228,241)" stroke-width="1" opacity="1" d="M 199.5 105 L 202 105.5 L 199.5 106 L 199.5 105 Z " /><path fill="rgb(191,228,241)" stroke="rgb(191,228,241)" stroke-width="1" opacity="1" d="M 205.5 105 L 209 105.5 L 205.5 106 L 205.5 105 Z " /><path fill="rgb(191,228,241)" stroke="rgb(191,228,241)" stroke-width="1" opacity="1" d="M 437.5 105 L 440 105.5 L 437.5 106 L 437.5 105 Z " /><path fill="rgb(191,228,241)" stroke="rgb(191,228,241)" stroke-width="1" opacity="1" d="M 443.5 105 L 447 105.5 L 443.5 106 L 443.5 105 Z " /><path fill="rgb(191,228,241)" stroke="rgb(191,228,241)" stroke-width="1" opacity="1" d="M 189.5 108 L 188.5 110 L 189.5 108 Z " /><path fill="rgb(191,228,241)" stroke="rgb(191,228,241)" stroke-width="1" opacity="1" d="M 427.5 108 L 429 108.5 L 426.5 110 L 427.5 108 Z " /><path fill="rgb(191,228,241)" stroke="rgb(191,228,241)" stroke-width="1" opacity="1" d="M 219.5 109 L 220.5 111 L 219.5 109 Z " /><path fill="rgb(191,228,241)" stroke="rgb(191,228,241)" stroke-width="1" opacity="1" d="M 457.5 109 L 458.5 111 L 457.5 109 Z " /><path fill="rgb(191,228,241)" stroke="rgb(191,228,241)" stroke-width="1" opacity="1" d="M 222.5 111 L 223.5 113 L 222.5 111 Z " /><path fill="rgb(191,228,241)" stroke="rgb(191,228,241)" stroke-width="1" opacity="1" d="M 423.5 111 L 422.5 113 L 423.5 111 Z " /><path fill="rgb(191,228,241)" stroke="rgb(191,228,241)" stroke-width="1" opacity="1" d="M 460.5 111 L 461.5 113 L 460.5 111 Z " /><path fill="rgb(191,228,241)" stroke="rgb(191,228,241)" stroke-width="1" opacity="1" d="M 182.5 114 L 178.5 119 L 182.5 114 Z " /><path fill="rgb(191,228,241)" stroke="rgb(191,228,241)" stroke-width="1" opacity="1" d="M 226.5 115 L 229.5 119 L 226.5 115 Z " /><path fill="rgb(191,228,241)" stroke="rgb(191,228,241)" stroke-width="1" opacity="1" d="M 419.5 115 L 416.5 119 L 419.5 115 Z " /><path fill="rgb(191,228,241)" stroke="rgb(191,228,241)" stroke-width="1" opacity="1" d="M 464.5 115 L 467.5 119 L 464.5 115 Z " /><path fill="rgb(191,228,241)" stroke="rgb(191,228,241)" stroke-width="1" opacity="1" d="M 234.5 130 L 235 135.5 L 234 135.5 L 234.5 130 Z " /><path fill="rgb(191,228,241)" stroke="rgb(191,228,241)" stroke-width="1" opacity="1" d="M 173.5 131 L 174 135.5 L 173 135.5 L 173.5 131 Z " /><path fill="rgb(191,228,241)" stroke="rgb(191,228,241)" stroke-width="1" opacity="1" d="M 131.5 173 L 134 173.5 L 131.5 174 L 131.5 173 Z " /><path fill="rgb(191,228,241)" stroke="rgb(191,228,241)" stroke-width="1" opacity="1" d="M 273.5 173 L 277 173.5 L 273.5 174 L 273.5 173 Z " /><path fill="rgb(191,228,241)" stroke="rgb(191,228,241)" stroke-width="1" opacity="1" d="M 121.5 176 L 120.5 178 L 121.5 176 Z " /><path fill="rgb(191,228,241)" stroke="rgb(191,228,241)" stroke-width="1" opacity="1" d="M 287.5 177 L 288.5 179 L 287.5 177 Z " /><path fill="rgb(191,228,241)" stroke="rgb(191,228,241)" stroke-width="1" opacity="1" d="M 290.5 179 L 291.5 181 L 290.5 179 Z " /><path fill="rgb(191,228,241)" stroke="rgb(191,228,241)" stroke-width="1" opacity="1" d="M 114.5 182 L 110.5 187 L 114.5 182 Z " /><path fill="rgb(191,228,241)" stroke="rgb(191,228,241)" stroke-width="1" opacity="1" d="M 294.5 183 L 297.5 187 L 294.5 183 Z " /><path fill="rgb(191,228,241)" stroke="rgb(191,228,241)" stroke-width="1" opacity="1" d="M 302.5 198 L 303 208.5 L 302 208.5 L 302.5 198 Z " /><path fill="rgb(191,228,241)" stroke="rgb(191,228,241)" stroke-width="1" opacity="1" d="M 105.5 199 L 106 209.5 L 105 209.5 L 105.5 199 Z " /><path fill="rgb(191,228,241)" stroke="rgb(191,228,241)" stroke-width="1" opacity="1" d="M 110.5 221 L 113.5 225 L 110.5 221 Z " /><path fill="rgb(191,228,241)" stroke="rgb(191,228,241)" stroke-width="1" opacity="1" d="M 297.5 221 L 293.5 226 L 297.5 221 Z " /><path fill="rgb(191,228,241)" stroke="rgb(191,228,241)" stroke-width="1" opacity="1" d="M 116.5 227 L 117.5 229 L 116.5 227 Z " /><path fill="rgb(191,228,241)" stroke="rgb(191,228,241)" stroke-width="1" opacity="1" d="M 119.5 229 L 120.5 231 L 119.5 229 Z " /><path fill="rgb(191,228,241)" stroke="rgb(191,228,241)" stroke-width="1" opacity="1" d="M 287.5 230 L 286.5 232 L 287.5 230 Z " /><path fill="rgb(191,228,241)" stroke="rgb(191,228,241)" stroke-width="1" opacity="1" d="M 131.5 234 L 135 234.5 L 131.5 235 L 131.5 234 Z " /><path fill="rgb(191,228,241)" stroke="rgb(191,228,241)" stroke-width="1" opacity="1" d="M 274.5 234 L 277 234.5 L 274.5 235 L 274.5 234 Z " /><path fill="rgb(191,228,241)" stroke="rgb(191,228,241)" stroke-width="1" opacity="1" d="M 173.5 272 L 174 277.5 L 173 277.5 L 173.5 272 Z " /><path fill="rgb(191,228,241)" stroke="rgb(191,228,241)" stroke-width="1" opacity="1" d="M 234.5 272 L 235 276.5 L 234 276.5 L 234.5 272 Z " /><path fill="rgb(191,228,241)" stroke="rgb(191,228,241)" stroke-width="1" opacity="1" d="M 178.5 289 L 181.5 293 L 178.5 289 Z " /><path fill="rgb(191,228,241)" stroke="rgb(191,228,241)" stroke-width="1" opacity="1" d="M 229.5 289 L 225.5 294 L 229.5 289 Z " /><path fill="rgb(191,228,241)" stroke="rgb(191,228,241)" stroke-width="1" opacity="1" d="M 184.5 295 L 185.5 297 L 184.5 295 Z " /><path fill="rgb(191,228,241)" stroke="rgb(191,228,241)" stroke-width="1" opacity="1" d="M 187.5 297 L 188.5 299 L 187.5 297 Z " /><path fill="rgb(191,228,241)" stroke="rgb(191,228,241)" stroke-width="1" opacity="1" d="M 219.5 298 L 218.5 300 L 219.5 298 Z " /><path fill="rgb(191,228,241)" stroke="rgb(191,228,241)" stroke-width="1" opacity="1" d="M 199.5 302 L 203 302.5 L 199.5 303 L 199.5 302 Z " /><path fill="rgb(191,228,241)" stroke="rgb(191,228,241)" stroke-width="1" opacity="1" d="M 206.5 302 L 209 302.5 L 206.5 303 L 206.5 302 Z " /><path fill="rgb(191,228,241)" stroke="rgb(191,228,241)" stroke-width="1" opacity="1" d="M 344.5 331 L 343.5 333 L 344.5 331 Z " /><path fill="rgb(191,228,241)" stroke="rgb(191,228,241)" stroke-width="1" opacity="1" d="M 342.5 334 L 335.5 342 L 342.5 334 Z " /><path fill="rgb(191,228,241)" stroke="rgb(191,228,241)" stroke-width="1" opacity="1" d="M 542.5 335 L 549.5 343 L 542.5 335 Z " /><path fill="rgb(191,228,241)" stroke="rgb(191,228,241)" stroke-width="1" opacity="1" d="M 551.5 343 L 552.5 345 L 551.5 343 Z " /><path fill="rgb(191,228,241)" stroke="rgb(191,228,241)" stroke-width="1" opacity="1" d="M 118.5 416 L 115.5 420 L 118.5 416 Z " /><path fill="rgb(191,228,241)" stroke="rgb(191,228,241)" stroke-width="1" opacity="1" d="M 765.5 416 L 768.5 420 L 765.5 416 Z " /><path fill="rgb(191,228,241)" stroke="rgb(191,228,241)" stroke-width="1" opacity="1" d="M 112.5 422 L 111.5 424 L 112.5 422 Z " /><path fill="rgb(191,228,241)" stroke="rgb(191,228,241)" stroke-width="1" opacity="1" d="M 771.5 422 L 772.5 424 L 771.5 422 Z " /><path fill="rgb(191,228,241)" stroke="rgb(191,228,241)" stroke-width="1" opacity="1" d="M 110.5 425 L 109.5 427 L 110.5 425 Z " /><path fill="rgb(191,228,241)" stroke="rgb(191,228,241)" stroke-width="1" opacity="1" d="M 774.5 426 L 776 428.5 L 775 428.5 L 774.5 426 Z " /><path fill="rgb(191,228,241)" stroke="rgb(191,228,241)" stroke-width="1" opacity="1" d="M 105.5 437 L 106 440.5 L 105 440.5 L 105.5 437 Z " /><path fill="rgb(191,228,241)" stroke="rgb(191,228,241)" stroke-width="1" opacity="1" d="M 778.5 437 L 779 439.5 L 778 439.5 L 778.5 437 Z " /><path fill="rgb(191,228,241)" stroke="rgb(191,228,241)" stroke-width="1" opacity="1" d="M 778.5 443 L 779 446.5 L 778 446.5 L 778.5 443 Z " /><path fill="rgb(191,228,241)" stroke="rgb(191,228,241)" stroke-width="1" opacity="1" d="M 105.5 444 L 106 446.5 L 105 446.5 L 105.5 444 Z " /><path fill="rgb(191,228,241)" stroke="rgb(191,228,241)" stroke-width="1" opacity="1" d="M 108.5 455 L 110 457.5 L 108 456.5 L 108.5 455 Z " /><path fill="rgb(191,228,241)" stroke="rgb(191,228,241)" stroke-width="1" opacity="1" d="M 774.5 457 L 773.5 459 L 774.5 457 Z " /><path fill="rgb(191,228,241)" stroke="rgb(191,228,241)" stroke-width="1" opacity="1" d="M 111.5 460 L 112.5 462 L 111.5 460 Z " /><path fill="rgb(191,228,241)" stroke="rgb(191,228,241)" stroke-width="1" opacity="1" d="M 772.5 460 L 771.5 462 L 772.5 460 Z " /><path fill="rgb(191,228,241)" stroke="rgb(191,228,241)" stroke-width="1" opacity="1" d="M 115.5 464 L 118.5 468 L 115.5 464 Z " /><path fill="rgb(191,228,241)" stroke="rgb(191,228,241)" stroke-width="1" opacity="1" d="M 768.5 464 L 765.5 468 L 768.5 464 Z " /><path fill="rgb(191,228,241)" stroke="rgb(191,228,241)" stroke-width="1" opacity="1" d="M 331.5 539 L 332.5 541 L 331.5 539 Z " /><path fill="rgb(191,228,241)" stroke="rgb(191,228,241)" stroke-width="1" opacity="1" d="M 334.5 541 L 341.5 549 L 334.5 541 Z " /><path fill="rgb(191,228,241)" stroke="rgb(191,228,241)" stroke-width="1" opacity="1" d="M 548.5 542 L 541.5 550 L 548.5 542 Z " /><path fill="rgb(191,228,241)" stroke="rgb(191,228,241)" stroke-width="1" opacity="1" d="M 540.5 551 L 539.5 553 L 540.5 551 Z " /><path fill="rgb(191,228,241)" stroke="rgb(191,228,241)" stroke-width="1" opacity="1" d="M 675.5 581 L 678 581.5 L 675.5 582 L 675.5 581 Z " /><path fill="rgb(191,228,241)" stroke="rgb(191,228,241)" stroke-width="1" opacity="1" d="M 681.5 581 L 685 581.5 L 681.5 582 L 681.5 581 Z " /><path fill="rgb(191,228,241)" stroke="rgb(191,228,241)" stroke-width="1" opacity="1" d="M 665.5 584 L 664.5 586 L 665.5 584 Z " /><path fill="rgb(191,228,241)" stroke="rgb(191,228,241)" stroke-width="1" opacity="1" d="M 695.5 585 L 696.5 587 L 695.5 585 Z " /><path fill="rgb(191,228,241)" stroke="rgb(191,228,241)" stroke-width="1" opacity="1" d="M 698.5 587 L 699.5 589 L 698.5 587 Z " /><path fill="rgb(191,228,241)" stroke="rgb(191,228,241)" stroke-width="1" opacity="1" d="M 658.5 590 L 654.5 595 L 658.5 590 Z " /><path fill="rgb(191,228,241)" stroke="rgb(191,228,241)" stroke-width="1" opacity="1" d="M 702.5 591 L 705.5 595 L 702.5 591 Z " /><path fill="rgb(191,228,241)" stroke="rgb(191,228,241)" stroke-width="1" opacity="1" d="M 710.5 606 L 711 611.5 L 710 611.5 L 710.5 606 Z " /><path fill="rgb(191,228,241)" stroke="rgb(191,228,241)" stroke-width="1" opacity="1" d="M 649.5 607 L 650 611.5 L 649 611.5 L 649.5 607 Z " /><path fill="rgb(191,228,241)" stroke="rgb(191,228,241)" stroke-width="1" opacity="1" d="M 607.5 649 L 610 649.5 L 607.5 650 L 607.5 649 Z " /><path fill="rgb(191,228,241)" stroke="rgb(191,228,241)" stroke-width="1" opacity="1" d="M 749.5 649 L 753 649.5 L 749.5 650 L 749.5 649 Z " /><path fill="rgb(191,228,241)" stroke="rgb(191,228,241)" stroke-width="1" opacity="1" d="M 597.5 652 L 596.5 654 L 597.5 652 Z " /><path fill="rgb(191,228,241)" stroke="rgb(191,228,241)" stroke-width="1" opacity="1" d="M 763.5 653 L 764.5 655 L 763.5 653 Z " /><path fill="rgb(191,228,241)" stroke="rgb(191,228,241)" stroke-width="1" opacity="1" d="M 766.5 655 L 767.5 657 L 766.5 655 Z " /><path fill="rgb(191,228,241)" stroke="rgb(191,228,241)" stroke-width="1" opacity="1" d="M 590.5 658 L 586.5 663 L 590.5 658 Z " /><path fill="rgb(191,228,241)" stroke="rgb(191,228,241)" stroke-width="1" opacity="1" d="M 770.5 659 L 773.5 663 L 770.5 659 Z " /><path fill="rgb(191,228,241)" stroke="rgb(191,228,241)" stroke-width="1" opacity="1" d="M 778.5 674 L 779 684.5 L 778 684.5 L 778.5 674 Z " /><path fill="rgb(191,228,241)" stroke="rgb(191,228,241)" stroke-width="1" opacity="1" d="M 581.5 675 L 582 685.5 L 581 685.5 L 581.5 675 Z " /><path fill="rgb(191,228,241)" stroke="rgb(191,228,241)" stroke-width="1" opacity="1" d="M 586.5 697 L 589.5 701 L 586.5 697 Z " /><path fill="rgb(191,228,241)" stroke="rgb(191,228,241)" stroke-width="1" opacity="1" d="M 773.5 697 L 769.5 702 L 773.5 697 Z " /><path fill="rgb(191,228,241)" stroke="rgb(191,228,241)" stroke-width="1" opacity="1" d="M 592.5 703 L 593.5 705 L 592.5 703 Z " /><path fill="rgb(191,228,241)" stroke="rgb(191,228,241)" stroke-width="1" opacity="1" d="M 595.5 705 L 596.5 707 L 595.5 705 Z " /><path fill="rgb(191,228,241)" stroke="rgb(191,228,241)" stroke-width="1" opacity="1" d="M 763.5 706 L 762.5 708 L 763.5 706 Z " /><path fill="rgb(191,228,241)" stroke="rgb(191,228,241)" stroke-width="1" opacity="1" d="M 607.5 710 L 611 710.5 L 607.5 711 L 607.5 710 Z " /><path fill="rgb(191,228,241)" stroke="rgb(191,228,241)" stroke-width="1" opacity="1" d="M 750.5 710 L 753 710.5 L 750.5 711 L 750.5 710 Z " /><path fill="rgb(191,228,241)" stroke="rgb(191,228,241)" stroke-width="1" opacity="1" d="M 649.5 748 L 650 753.5 L 649 753.5 L 649.5 748 Z " /><path fill="rgb(191,228,241)" stroke="rgb(191,228,241)" stroke-width="1" opacity="1" d="M 710.5 748 L 711 752.5 L 710 752.5 L 710.5 748 Z " /><path fill="rgb(191,228,241)" stroke="rgb(191,228,241)" stroke-width="1" opacity="1" d="M 416.5 765 L 419.5 769 L 416.5 765 Z " /><path fill="rgb(191,228,241)" stroke="rgb(191,228,241)" stroke-width="1" opacity="1" d="M 467.5 765 L 464.5 769 L 467.5 765 Z " /><path fill="rgb(191,228,241)" stroke="rgb(191,228,241)" stroke-width="1" opacity="1" d="M 654.5 765 L 657.5 769 L 654.5 765 Z " /><path fill="rgb(191,228,241)" stroke="rgb(191,228,241)" stroke-width="1" opacity="1" d="M 705.5 765 L 701.5 770 L 705.5 765 Z " /><path fill="rgb(191,228,241)" stroke="rgb(191,228,241)" stroke-width="1" opacity="1" d="M 422.5 771 L 423.5 773 L 422.5 771 Z " /><path fill="rgb(191,228,241)" stroke="rgb(191,228,241)" stroke-width="1" opacity="1" d="M 461.5 771 L 460.5 773 L 461.5 771 Z " /><path fill="rgb(191,228,241)" stroke="rgb(191,228,241)" stroke-width="1" opacity="1" d="M 660.5 771 L 661.5 773 L 660.5 771 Z " /><path fill="rgb(191,228,241)" stroke="rgb(191,228,241)" stroke-width="1" opacity="1" d="M 425.5 773 L 426.5 775 L 425.5 773 Z " /><path fill="rgb(191,228,241)" stroke="rgb(191,228,241)" stroke-width="1" opacity="1" d="M 663.5 773 L 664.5 775 L 663.5 773 Z " /><path fill="rgb(191,228,241)" stroke="rgb(191,228,241)" stroke-width="1" opacity="1" d="M 457.5 774 L 456.5 776 L 455 775.5 L 457.5 774 Z " /><path fill="rgb(191,228,241)" stroke="rgb(191,228,241)" stroke-width="1" opacity="1" d="M 695.5 774 L 694.5 776 L 695.5 774 Z " /><path fill="rgb(191,228,241)" stroke="rgb(191,228,241)" stroke-width="1" opacity="1" d="M 437.5 778 L 441 778.5 L 437.5 779 L 437.5 778 Z " /><path fill="rgb(191,228,241)" stroke="rgb(191,228,241)" stroke-width="1" opacity="1" d="M 444.5 778 L 447 778.5 L 444.5 779 L 444.5 778 Z " /><path fill="rgb(191,228,241)" stroke="rgb(191,228,241)" stroke-width="1" opacity="1" d="M 675.5 778 L 679 778.5 L 675.5 779 L 675.5 778 Z " /><path fill="rgb(191,228,241)" stroke="rgb(191,228,241)" stroke-width="1" opacity="1" d="M 682.5 778 L 685 778.5 L 682.5 779 L 682.5 778 Z " /><path fill="rgb(255,255,255)" stroke="rgb(255,255,255)" stroke-width="1" opacity="0.996078431372549" d="M 228.5 0 L 247 0.5 L 228.5 1 L 228.5 0 Z " /><path fill="rgb(255,255,255)" stroke="rgb(255,255,255)" stroke-width="1" opacity="0.996078431372549" d="M 632.5 0 L 651 0.5 L 632.5 1 L 632.5 0 Z " /><path fill="rgb(255,255,255)" stroke="rgb(255,255,255)" stroke-width="1" opacity="0.996078431372549" d="M 219.5 1 L 227 1.5 L 219.5 2 L 219.5 1 Z " /><path fill="rgb(255,255,255)" stroke="rgb(255,255,255)" stroke-width="1" opacity="0.996078431372549" d="M 652.5 1 L 660 1.5 L 652.5 2 L 652.5 1 Z " /><path fill="rgb(255,255,255)" stroke="rgb(255,255,255)" stroke-width="1" opacity="0.996078431372549" d="M 212.5 2 L 218 2.5 L 212.5 3 L 212.5 2 Z " /><path fill="rgb(255,255,255)" stroke="rgb(255,255,255)" stroke-width="1" opacity="0.996078431372549" d="M 661.5 2 L 673.5 3 L 699.5 9 L 734.5 22 Q 778.4 42.6 810 75.5 Q 839.2 105.3 858 145.5 L 871 180.5 L 877 206.5 L 879 227.5 L 878 227.5 L 876 206.5 L 870 180.5 Q 863.5 158.5 854 139.5 Q 831.7 95.3 796.5 64 Q 771.8 41.7 740.5 26 Q 721.5 16.5 699.5 10 L 673.5 4 L 661.5 3 L 661.5 2 Z " /><path fill="rgb(255,255,255)" stroke="rgb(255,255,255)" stroke-width="1" opacity="0.996078431372549" d="M 206.5 3 L 211 3.5 L 206.5 4 L 206.5 3 Z " /><path fill="rgb(255,255,255)" stroke="rgb(255,255,255)" stroke-width="1" opacity="0.996078431372549" d="M 201.5 4 L 205 4.5 L 201.5 5 L 201.5 4 Z " /><path fill="rgb(255,255,255)" stroke="rgb(255,255,255)" stroke-width="1" opacity="0.996078431372549" d="M 196.5 5 L 200 5.5 L 196.5 6 L 196.5 5 Z " /><path fill="rgb(255,255,255)" stroke="rgb(255,255,255)" stroke-width="1" opacity="0.996078431372549" d="M 191.5 6 L 195 6.5 L 188.5 8 L 188.5 7 L 191.5 6 Z " /><path fill="rgb(255,255,255)" stroke="rgb(255,255,255)" stroke-width="1" opacity="0.996078431372549" d="M 184.5 8 L 187 8.5 L 184.5 9 L 184.5 8 Z " /><path fill="rgb(255,255,255)" stroke="rgb(255,255,255)" stroke-width="1" opacity="0.996078431372549" d="M 180.5 9 L 183 9.5 L 177.5 11 L 177.5 10 L 180.5 9 Z " /><path fill="rgb(255,255,255)" stroke="rgb(255,255,255)" stroke-width="1" opacity="0.996078431372549" d="M 165.5 14 L 167 14.5 L 155.5 19 L 155.5 18 L 165.5 14 Z " /><path fill="rgb(255,255,255)" stroke="rgb(255,255,255)" stroke-width="1" opacity="0.996078431372549" d="M 152.5 19 L 154 19.5 L 130.5 31 L 131.5 29 L 152.5 19 Z " /><path fill="rgb(255,255,255)" stroke="rgb(255,255,255)" stroke-width="1" opacity="0.996078431372549" d="M 128.5 31 L 127.5 33 L 101.5 49 L 74.5 73 L 73 73 L 44.5 108 L 46 105.5 Q 59.2 85.2 76.5 69 Q 99.3 46.8 128.5 31 Z " /><path fill="rgb(255,255,255)" stroke="rgb(255,255,255)" stroke-width="1" opacity="0.996078431372549" d="M 43.5 109 L 42 111.5 L 35.5 122 L 36 120.5 L 43.5 109 Z " /><path fill="rgb(255,255,255)" stroke="rgb(255,255,255)" stroke-width="1" opacity="0.996078431372549" d="M 34.5 123 L 34 124.5 L 30.5 131 L 31 129.5 L 34.5 123 Z " /><path fill="rgb(255,255,255)" stroke="rgb(255,255,255)" stroke-width="1" opacity="0.996078431372549" d="M 29.5 132 L 29 133.5 L 23.5 145 L 23 143.5 L 29.5 132 Z " /><path fill="rgb(255,255,255)" stroke="rgb(255,255,255)" stroke-width="1" opacity="0.996078431372549" d="M 21.5 148 L 22 149.5 L 20.5 152 L 20 150.5 L 21.5 148 Z " /><path fill="rgb(255,255,255)" stroke="rgb(255,255,255)" stroke-width="1" opacity="0.996078431372549" d="M 18.5 155 L 19 156.5 L 17.5 159 L 17 157.5 L 18.5 155 Z " /><path fill="rgb(255,255,255)" stroke="rgb(255,255,255)" stroke-width="1" opacity="0.996078431372549" d="M 15.5 163 L 16 164.5 L 13.5 170 L 13 168.5 L 15.5 163 Z " /><path fill="rgb(255,255,255)" stroke="rgb(255,255,255)" stroke-width="1" opacity="0.996078431372549" d="M 12.5 171 L 13 173.5 L 10.5 180 L 10 177.5 L 12.5 171 Z " /><path fill="rgb(255,255,255)" stroke="rgb(255,255,255)" stroke-width="1" opacity="0.996078431372549" d="M 9.5 181 L 10 183.5 L 8.5 187 L 8 184.5 L 9.5 181 Z " /><path fill="rgb(255,255,255)" stroke="rgb(255,255,255)" stroke-width="1" opacity="0.996078431372549" d="M 7.5 188 L 8 190.5 L 7 190.5 L 7.5 188 Z " /><path fill="rgb(255,255,255)" stroke="rgb(255,255,255)" stroke-width="1" opacity="0.996078431372549" d="M 6.5 192 L 7 195.5 L 6 195.5 L 6.5 192 Z " /><path fill="rgb(255,255,255)" stroke="rgb(255,255,255)" stroke-width="1" opacity="0.996078431372549" d="M 5.5 197 L 6 199.5 L 5 199.5 L 5.5 197 Z " /><path fill="rgb(255,255,255)" stroke="rgb(255,255,255)" stroke-width="1" opacity="0.996078431372549" d="M 4.5 201 L 5 204.5 L 4 204.5 L 4.5 201 Z " /><path fill="rgb(255,255,255)" stroke="rgb(255,255,255)" stroke-width="1" opacity="0.996078431372549" d="M 3.5 206 L 4 210.5 L 3 210.5 L 3.5 206 Z " /><path fill="rgb(255,255,255)" stroke="rgb(255,255,255)" stroke-width="1" opacity="0.996078431372549" d="M 2.5 213 L 3 217.5 L 2 217.5 L 2.5 213 Z " /><path fill="rgb(255,255,255)" stroke="rgb(255,255,255)" stroke-width="1" opacity="0.996078431372549" d="M 1.5 220 L 2 226.5 L 1 226.5 L 1.5 220 Z " /><path fill="rgb(255,255,255)" stroke="rgb(255,255,255)" stroke-width="1" opacity="0.996078431372549" d="M 0.5 229 L 1 246.5 L 0 246.5 L 0.5 229 Z " /><path fill="rgb(255,255,255)" stroke="rgb(255,255,255)" stroke-width="1" opacity="0.996078431372549" d="M 879.5 229 L 880 247.5 L 879 247.5 L 879.5 229 Z " /><path fill="rgb(255,255,255)" stroke="rgb(255,255,255)" stroke-width="1" opacity="0.996078431372549" d="M 0.5 633 L 1 651.5 L 0 651.5 L 0.5 633 Z " /><path fill="rgb(255,255,255)" stroke="rgb(255,255,255)" stroke-width="1" opacity="0.996078431372549" d="M 879.5 633 L 880 650.5 L 879 650.5 L 879.5 633 Z " /><path fill="rgb(255,255,255)" stroke="rgb(255,255,255)" stroke-width="1" opacity="0.996078431372549" d="M 1.5 653 L 2 660.5 L 1 660.5 L 1.5 653 Z " /><path fill="rgb(255,255,255)" stroke="rgb(255,255,255)" stroke-width="1" opacity="0.996078431372549" d="M 878.5 653 L 879 660.5 L 878 660.5 L 878.5 653 Z " /><path fill="rgb(255,255,255)" stroke="rgb(255,255,255)" stroke-width="1" opacity="0.996078431372549" d="M 2.5 662 L 3 667.5 L 2 667.5 L 2.5 662 Z " /><path fill="rgb(255,255,255)" stroke="rgb(255,255,255)" stroke-width="1" opacity="0.996078431372549" d="M 877.5 662 L 878 667.5 L 877 667.5 L 877.5 662 Z " /><path fill="rgb(255,255,255)" stroke="rgb(255,255,255)" stroke-width="1" opacity="0.996078431372549" d="M 3.5 669 L 4 673.5 L 3 673.5 L 3.5 669 Z " /><path fill="rgb(255,255,255)" stroke="rgb(255,255,255)" stroke-width="1" opacity="0.996078431372549" d="M 876.5 669 L 877 673.5 L 876 673.5 L 876.5 669 Z " /><path fill="rgb(255,255,255)" stroke="rgb(255,255,255)" stroke-width="1" opacity="0.996078431372549" d="M 4.5 675 L 6 683.5 L 5 683.5 L 4.5 675 Z " /><path fill="rgb(255,255,255)" stroke="rgb(255,255,255)" stroke-width="1" opacity="0.996078431372549" d="M 875.5 675 L 876 678.5 L 875 678.5 L 875.5 675 Z " /><path fill="rgb(255,255,255)" stroke="rgb(255,255,255)" stroke-width="1" opacity="0.996078431372549" d="M 874.5 680 L 875 683.5 L 874 683.5 L 874.5 680 Z " /><path fill="rgb(255,255,255)" stroke="rgb(255,255,255)" stroke-width="1" opacity="0.996078431372549" d="M 6.5 685 L 9 695.5 L 8 695.5 L 6.5 685 Z " /><path fill="rgb(255,255,255)" stroke="rgb(255,255,255)" stroke-width="1" opacity="0.996078431372549" d="M 873.5 685 L 874 687.5 L 873 687.5 L 873.5 685 Z " /><path fill="rgb(255,255,255)" stroke="rgb(255,255,255)" stroke-width="1" opacity="0.996078431372549" d="M 872.5 689 L 873 691.5 L 872 691.5 L 872.5 689 Z " /><path fill="rgb(255,255,255)" stroke="rgb(255,255,255)" stroke-width="1" opacity="0.996078431372549" d="M 871.5 693 L 872 695.5 L 871 695.5 L 871.5 693 Z " /><path fill="rgb(255,255,255)" stroke="rgb(255,255,255)" stroke-width="1" opacity="0.996078431372549" d="M 9.5 697 Q 32.1 772.9 85.5 818 Q 124.8 853.7 183 870.5 L 180.5 871 Q 109 849 65 799.5 Q 45.6 778.4 31 752.5 L 16 720.5 L 9 699.5 L 9.5 697 Z " /><path fill="rgb(255,255,255)" stroke="rgb(255,255,255)" stroke-width="1" opacity="0.996078431372549" d="M 870.5 697 L 871 699.5 L 869.5 703 L 869 700.5 L 870.5 697 Z " /><path fill="rgb(255,255,255)" stroke="rgb(255,255,255)" stroke-width="1" opacity="0.996078431372549" d="M 865.5 713 L 866 714.5 L 863.5 720 L 863 718.5 L 865.5 713 Z " /><path fill="rgb(255,255,255)" stroke="rgb(255,255,255)" stroke-width="1" opacity="0.996078431372549" d="M 862.5 721 L 863 722.5 L 861.5 725 L 861 723.5 L 862.5 721 Z " /><path fill="rgb(255,255,255)" stroke="rgb(255,255,255)" stroke-width="1" opacity="0.996078431372549" d="M 860.5 726 L 861 727.5 L 858.5 732 L 858 730.5 L 860.5 726 Z " /><path fill="rgb(255,255,255)" stroke="rgb(255,255,255)" stroke-width="1" opacity="0.996078431372549" d="M 857.5 733 L 858 734.5 L 849.5 750 L 850 748.5 L 857.5 733 Z " /><path fill="rgb(255,255,255)" stroke="rgb(255,255,255)" stroke-width="1" opacity="0.996078431372549" d="M 848.5 751 L 848 752.5 L 845.5 757 L 846 755.5 L 848.5 751 Z " /><path fill="rgb(255,255,255)" stroke="rgb(255,255,255)" stroke-width="1" opacity="0.996078431372549" d="M 844.5 758 L 844 759.5 L 836.5 771 L 838 768.5 L 844.5 758 Z " /><path fill="rgb(255,255,255)" stroke="rgb(255,255,255)" stroke-width="1" opacity="0.996078431372549" d="M 835.5 772 L 834 774.5 Q 822.2 793.2 806.5 808 Q 788.5 826 766.5 840 L 767.5 838 Q 796.3 819.8 818 794.5 L 835.5 772 Z " /><path fill="rgb(255,255,255)" stroke="rgb(255,255,255)" stroke-width="1" opacity="0.996078431372549" d="M 764.5 840 L 763.5 842 L 749.5 850 L 750.5 848 L 764.5 840 Z " /><path fill="rgb(255,255,255)" stroke="rgb(255,255,255)" stroke-width="1" opacity="0.996078431372549" d="M 747.5 850 L 746.5 852 L 735.5 857 L 735.5 856 L 747.5 850 Z " /><path fill="rgb(255,255,255)" stroke="rgb(255,255,255)" stroke-width="1" opacity="0.996078431372549" d="M 732.5 857 L 734 857.5 L 718.5 864 L 718.5 863 L 732.5 857 Z " /><path fill="rgb(255,255,255)" stroke="rgb(255,255,255)" stroke-width="1" opacity="0.996078431372549" d="M 715.5 864 L 717 864.5 L 710.5 867 L 710.5 866 L 715.5 864 Z " /><path fill="rgb(255,255,255)" stroke="rgb(255,255,255)" stroke-width="1" opacity="0.996078431372549" d="M 706.5 867 L 709 867.5 L 693.5 872 L 693.5 871 L 706.5 867 Z " /><path fill="rgb(255,255,255)" stroke="rgb(255,255,255)" stroke-width="1" opacity="0.996078431372549" d="M 184.5 871 L 195 873.5 L 191.5 874 L 184.5 872 L 184.5 871 Z " /><path fill="rgb(255,255,255)" stroke="rgb(255,255,255)" stroke-width="1" opacity="0.996078431372549" d="M 689.5 872 L 692 872.5 L 689.5 873 L 689.5 872 Z " /><path fill="rgb(255,255,255)" stroke="rgb(255,255,255)" stroke-width="1" opacity="0.996078431372549" d="M 684.5 873 L 688 873.5 L 684.5 874 L 684.5 873 Z " /><path fill="rgb(255,255,255)" stroke="rgb(255,255,255)" stroke-width="1" opacity="0.996078431372549" d="M 196.5 874 L 205 875.5 L 200.5 876 L 196.5 875 L 196.5 874 Z " /><path fill="rgb(255,255,255)" stroke="rgb(255,255,255)" stroke-width="1" opacity="0.996078431372549" d="M 680.5 874 L 683 874.5 L 680.5 875 L 680.5 874 Z " /><path fill="rgb(255,255,255)" stroke="rgb(255,255,255)" stroke-width="1" opacity="0.996078431372549" d="M 675.5 875 L 679 875.5 L 675.5 876 L 675.5 875 Z " /><path fill="rgb(255,255,255)" stroke="rgb(255,255,255)" stroke-width="1" opacity="0.996078431372549" d="M 206.5 876 L 211 876.5 L 206.5 877 L 206.5 876 Z " /><path fill="rgb(255,255,255)" stroke="rgb(255,255,255)" stroke-width="1" opacity="0.996078431372549" d="M 668.5 876 L 674 876.5 L 668.5 877 L 668.5 876 Z " /><path fill="rgb(255,255,255)" stroke="rgb(255,255,255)" stroke-width="1" opacity="0.996078431372549" d="M 212.5 877 L 218 877.5 L 212.5 878 L 212.5 877 Z " /><path fill="rgb(255,255,255)" stroke="rgb(255,255,255)" stroke-width="1" opacity="0.996078431372549" d="M 662.5 877 L 667 877.5 L 662.5 878 L 662.5 877 Z " /><path fill="rgb(255,255,255)" stroke="rgb(255,255,255)" stroke-width="1" opacity="0.996078431372549" d="M 219.5 878 L 227 878.5 L 219.5 879 L 219.5 878 Z " /><path fill="rgb(255,255,255)" stroke="rgb(255,255,255)" stroke-width="1" opacity="0.996078431372549" d="M 653.5 878 L 660 878.5 L 653.5 879 L 653.5 878 Z " /><path fill="rgb(255,255,255)" stroke="rgb(255,255,255)" stroke-width="1" opacity="0.996078431372549" d="M 228.5 879 L 247 879.5 L 228.5 880 L 228.5 879 Z " /><path fill="rgb(255,255,255)" stroke="rgb(255,255,255)" stroke-width="1" opacity="0.996078431372549" d="M 633.5 879 L 651 879.5 L 633.5 880 L 633.5 879 Z " /><path fill="rgb(255,255,255)" stroke="rgb(255,255,255)" stroke-width="1" opacity="1" d="M 247.5 0 L 631.5 0 L 632.5 1 L 651.5 1 L 652.5 2 L 667.5 3 L 699.5 10 L 717.5 16 L 744.5 28 Q 786.1 49.9 816 83.5 Q 838.3 108.2 854 139.5 Q 863.5 158.5 870 180.5 L 878 219.5 L 879 247.5 L 880 248.5 L 880 632.5 L 879 633.5 L 878 661.5 L 874 684.5 L 869 703.5 L 858 732.5 Q 834.5 783.5 794.5 818 Q 768.3 841.3 734.5 857 L 699.5 870 L 661.5 878 L 633.5 879 L 632.5 880 L 247.5 880 L 246.5 879 L 218.5 878 L 195.5 874 L 173.5 868 L 147.5 858 Q 96.5 834.5 62 794.5 Q 38 767.5 22 732.5 L 9 696.5 L 2 661.5 L 1 633.5 L 0 632.5 L 0 247.5 L 1 246.5 L 1 227.5 L 2 226.5 L 2 218.5 L 3 217.5 L 5 200.5 L 13 170.5 L 19 154.5 L 40 114.5 L 52 97.5 L 73 74.5 L 73 73 L 74.5 73 L 97.5 52 L 114.5 40 Q 133 28 154.5 19 Q 173.4 10.9 195.5 6 L 218.5 2 L 246.5 1 L 247.5 0 Z M 200 105 L 190 108 L 186 111 Q 176 118 173 132 L 173 173 L 132 173 L 122 176 L 118 179 Q 108 186 105 200 L 105 210 L 110 222 Q 117 232 132 235 L 173 235 L 173 278 L 178 290 Q 185 300 200 303 Q 215 304 223 297 Q 232 290 235 277 L 235 235 L 277 235 L 287 232 L 291 229 Q 300 222 303 209 L 303 199 L 298 187 Q 291 176 277 173 L 235 173 L 235 131 L 230 119 Q 225 111 216 107 L 209 105 L 200 105 Z M 438 105 L 428 108 L 424 111 Q 416 117 412 127 L 348 324 L 343 334 Q 336 344 324 348 L 318 349 L 245 374 L 242 374 L 169 399 L 166 399 L 127 412 L 119 416 Q 108 423 105 438 Q 104 453 111 461 Q 117 468 127 472 L 324 536 L 334 541 Q 344 548 348 561 L 349 567 L 374 640 L 374 643 L 399 716 L 399 719 L 412 758 L 416 766 Q 423 776 438 779 Q 453 780 461 773 Q 468 768 472 758 L 536 561 L 541 551 Q 548 540 561 536 L 567 535 L 640 510 L 643 510 L 716 485 L 719 485 L 758 472 L 766 468 Q 776 461 779 447 Q 780 431 773 424 Q 768 416 758 412 L 561 348 L 551 343 Q 540 336 536 324 L 535 318 L 510 245 L 510 242 L 485 169 L 485 166 L 472 127 L 468 119 Q 463 111 454 107 L 447 105 L 438 105 Z M 676 581 L 666 584 L 662 587 Q 652 594 649 608 L 649 649 L 608 649 L 598 652 L 594 655 Q 584 662 581 676 L 581 686 L 586 698 Q 593 708 608 711 L 649 711 L 649 754 L 654 766 Q 661 776 676 779 Q 691 780 699 773 Q 708 766 711 753 L 711 711 L 753 711 L 763 708 L 767 705 Q 776 698 779 685 L 779 675 L 774 663 Q 767 652 753 649 L 711 649 L 711 607 L 706 595 Q 701 587 692 583 L 685 581 L 676 581 Z " /><path fill="rgb(93,187,220)" stroke="rgb(93,187,220)" stroke-width="1" opacity="1" d="M 202.5 105 Q 218 106 226 114.5 Q 231.5 120 234 128.5 Q 232.3 134.8 235 136.5 L 235 173 L 272.5 173 Q 274 175.5 279.5 174 L 294 182.5 Q 299.5 188 302 196.5 L 302 210.5 Q 299.3 221.8 291.5 228 L 285.5 232 L 273.5 235 L 235 235 L 235 271.5 Q 232.5 273 234 278.5 Q 231.3 289.8 223.5 296 L 217.5 300 L 203.5 303 L 191.5 300 L 182 293.5 Q 176.5 288 174 279.5 Q 175.7 273.3 173 271.5 L 173 235 L 135.5 235 Q 134 232.5 128.5 234 L 114 225.5 Q 108.5 220 106 211.5 L 106 197.5 Q 108.8 186.3 116.5 180 L 122.5 176 L 134.5 173 L 173 173 L 173 136.5 Q 175.5 135 174 129.5 Q 176.8 118.3 184.5 112 L 190.5 108 L 202.5 105 Z " /><path fill="rgb(93,187,220)" stroke="rgb(93,187,220)" stroke-width="1" opacity="1" d="M 440.5 105 Q 456 106 464 114.5 L 472 127.5 L 536 324.5 Q 540.4 336.1 549.5 343 L 561.5 349 L 564.5 349 L 758.5 413 L 771 421.5 Q 778.2 428.8 779 442.5 L 776 454.5 L 769.5 464 L 756.5 472 L 559.5 536 Q 547.9 540.4 541 549.5 L 535 561.5 L 535 564.5 L 471 758.5 L 462.5 771 Q 455.2 778.2 441.5 779 L 429.5 776 L 420 769.5 L 412 756.5 L 348 559.5 Q 343.6 547.9 334.5 541 L 322.5 535 L 319.5 535 L 125.5 471 L 113 462.5 Q 105.8 455.2 105 441.5 L 108 429.5 L 114.5 420 L 127.5 412 L 324.5 348 Q 336.1 343.6 343 334.5 L 349 322.5 L 349 319.5 L 413 125.5 L 421.5 113 L 431.5 107 L 440.5 105 Z " /><path fill="rgb(93,187,220)" stroke="rgb(93,187,220)" stroke-width="1" opacity="1" d="M 678.5 581 Q 694 582 702 590.5 Q 707.5 596 710 604.5 Q 708.3 610.8 711 612.5 L 711 649 L 748.5 649 Q 750 651.5 755.5 650 L 770 658.5 Q 775.5 664 778 672.5 L 778 686.5 Q 775.3 697.8 767.5 704 L 761.5 708 L 749.5 711 L 711 711 L 711 747.5 Q 708.5 749 710 754.5 Q 707.3 765.8 699.5 772 L 693.5 776 L 679.5 779 L 667.5 776 L 658 769.5 Q 652.5 764 650 755.5 Q 651.7 749.2 649 747.5 L 649 711 L 611.5 711 Q 610 708.5 604.5 710 L 590 701.5 Q 584.5 696 582 687.5 L 582 673.5 Q 584.8 662.3 592.5 656 L 598.5 652 L 610.5 649 L 649 649 L 649 612.5 Q 651.5 611 650 605.5 Q 652.8 594.3 660.5 588 L 666.5 584 L 678.5 581 Z " /></svg>